<?xml version="1.0" standalone="no"?>
<!DOCTYPE svg PUBLIC "-//W3C//DTD SVG 20010904//EN"
 "http://www.w3.org/TR/2001/REC-SVG-20010904/DTD/svg10.dtd">
<svg version="1.0" xmlns="http://www.w3.org/2000/svg"
 width="217.000000pt" height="186.000000pt" viewBox="0 0 217.000000 186.000000"
 preserveAspectRatio="xMidYMid meet">

<g transform="translate(0.000000,186.000000) scale(0.100000,-0.100000)"
fill="#fff" stroke="none">
<path d="M302 1753 l-51 -88 260 -3 c256 -2 259 -3 273 -25 7 -12 42 -70 76
-129 34 -59 66 -105 70 -103 5 3 29 41 55 85 l46 81 -78 134 -78 135 -261 0
-261 0 -51 -87z"/>
<path d="M1000 1803 c12 -21 36 -62 52 -90 l30 -53 321 0 322 1 48 83 c26 46
47 86 47 90 0 3 -189 6 -421 6 l-421 0 22 -37z"/>
<path d="M1747 1523 l-125 -218 -156 -3 c-86 -1 -156 -4 -156 -6 0 -2 23 -43
51 -90 l50 -86 154 0 155 0 23 38 c13 20 72 121 132 224 l108 188 -49 85 c-27
47 -52 85 -55 85 -4 0 -63 -98 -132 -217z"/>
<path d="M148 1486 c-27 -46 -48 -86 -48 -90 0 -3 116 -6 258 -6 l257 0 75
-130 c41 -72 77 -130 80 -130 12 0 102 170 97 183 -3 6 -37 66 -75 132 l-70
120 -264 3 -263 2 -47 -84z"/>
<path d="M1097 1478 c-55 -94 -117 -202 -168 -293 -16 -27 -29 -53 -29 -57 0
-5 45 -8 99 -8 l99 0 78 135 78 135 157 0 157 0 38 68 c20 37 44 77 52 90 l14
22 -260 0 -261 0 -54 -92z"/>
<path d="M1989 1402 c-25 -42 -83 -143 -129 -224 l-84 -148 -153 0 c-84 0
-153 -3 -153 -6 0 -4 21 -44 48 -90 l47 -84 157 0 156 0 131 225 130 225 -50
88 c-28 48 -52 88 -52 89 -1 1 -23 -33 -48 -75z"/>
<path d="M54 1285 c5 -15 239 -422 359 -627 33 -56 54 -83 59 -75 4 6 27 46
51 87 l45 75 -19 35 c-10 19 -81 143 -157 275 l-138 240 -103 3 c-92 2 -103 1
-97 -13z"/>
<path d="M362 1291 c2 -5 59 -106 128 -225 l125 -216 258 0 258 0 -12 23 c-6
12 -30 52 -51 89 l-40 68 -156 2 -156 3 -76 132 -75 132 -103 1 c-58 0 -102
-4 -100 -9z"/>
<path d="M1195 1108 c-27 -45 -48 -88 -48 -93 0 -6 32 -65 71 -132 40 -67 72
-128 72 -135 0 -7 -34 -71 -75 -141 l-74 -128 51 -90 c45 -79 52 -88 63 -72
26 39 245 422 245 430 0 9 -237 423 -249 436 -5 5 -30 -29 -56 -75z"/>
<path d="M1607 738 c-8 -13 -28 -45 -44 -73 -94 -154 -264 -456 -261 -463 14
-37 94 -162 101 -159 7 2 401 672 414 705 4 9 -19 12 -96 12 -94 0 -101 -2
-114 -22z"/>
<path d="M596 615 c-43 -74 -76 -139 -74 -144 1 -5 59 -106 128 -225 l125
-216 103 0 103 0 -17 33 c-9 17 -66 116 -125 218 -60 102 -109 191 -109 197 0
5 19 43 43 84 24 40 58 99 76 131 l32 57 -103 0 -104 0 -78 -135z"/>
<path d="M907 614 l-79 -136 88 -151 c48 -84 106 -183 129 -222 l41 -70 102
-3 c56 -1 102 0 102 3 0 3 -57 104 -126 223 -103 178 -124 220 -116 237 5 11
39 71 76 134 36 62 66 115 66 117 0 2 -46 4 -102 4 l-103 0 -78 -136z"/>
</g>
</svg>
